<svg xmlns="http://www.w3.org/2000/svg" width="32" height="32" viewBox="0 -960 960 960" fill="#863bff">
  <path d="M480-480q33 0 56.5-23.5T560-560q0-33-23.5-56.5T480-640q-33 0-56.5 23.5T400-560q0 33 23.5 56.5T480-480Zm0 400Q312-224 226-342t-86-218q0-142 99-241t241-99q142 0 241 99t99 241q0 100-86 218T480-80Zm0-60q143-105 211.5-199T760-560q0-117-79.5-198.5T480-840q-117 0-196.5 81.5T204-560q0 88 68.5 182T480-140Zm0-420Z"/>
  <path d="M480-320q-17 0-28.5-11.5T440-360q0-15 11.5-26.5T480-398q17 0 28.5 11.5T520-360q0 15-11.5 26.5T480-320Z"/>
  <!-- I'll use a manually crafted heart-pin for the favicon -->
</svg>
